<svg viewBox="0 218 612 331.2" xmlns="http://www.w3.org/2000/svg" xmlns:xlink="http://www.w3.org/1999/xlink" overflow="hidden"><style>
.MsftOfcResponsive_Fill_6fa1f9 {
 fill:#6FA1F9; 
}
</style>
<path d="M0 242.8C0 242.8 34.8 265.7 21 301.9 21 301.9 29.4 300 35.2 309.8 35.2 309.8 46.4 319.9 36.6 332 36.6 332 40.1 329.9 46.2 335.5 46.2 335.5 59.9 344.1 50.6 356.5 50.6 356.5 63.9 347.9 81.4 354.6 81.4 354.6 96.8 361.8 98.4 376.5 98.4 376.5 106.5 377.9 112.6 389.1 118.7 400.3 117.9 420.6 90 441.8 90 441.8 105.2 442.9 111.2 456.1 117.2 469.4 109.3 481.8 106.7 484.6 106.7 484.6 114.4 477.1 130 482.8 145.6 488.6 148.5 504 148.5 504 148.5 504 152 489.5 165.1 489.7 178.2 489.9 180.9 499.7 180.9 499.7 180.9 499.7 178 447 230 426.4 282 405.8 311.6 443.6 311.6 443.6 311.6 443.6 319.1 438.7 328.2 446 337.3 453.3 334.7 469.3 330.6 479.8 330.6 479.8 339.9 459.3 369.6 460.4 399.4 461.5 414.7 482.3 418.4 492.1 418.4 492.1 418.2 474.2 438.5 459 458.8 443.8 496.3 446.1 521.8 467.9 521.8 467.9 513.6 443.7 523 425.6 532.5 407.4 551 410.6 555.5 413.8 555.5 413.8 546.2 405.3 553.2 394.3 560.2 383.3 575.9 389.9 575.9 389.9 575.9 389.9 556.8 367.8 561.2 341.9 565.6 316 590.4 298.3 611.8 298.5L611.8 549.3 0 549.3 0 242.8ZM612 285.7 612 249.8C612 249.8 605.4 259.4 605.4 268.5 605.4 277.6 612 285.7 612 285.7Z" class="MsftOfcResponsive_Fill_6fa1f9" fill="#6FA1F9"/></svg>